<svg version="1.1" id="Layer_1" xmlns="http://www.w3.org/2000/svg" x="0" y="0" viewBox="0 0 547.69 108.04" style="enable-background:new 0 0 547.69 108.04" xml:space="preserve"><style>.st1{fill:#fff}</style><g id="_x34__1_"><path d="M118.89 0H8.67L0 14.95l54.58 93.09h18.39l54.58-93.09L118.89 0zM29.26 28.64h8.77l33.78 57.61 45.77-79.01 4.47 7.7-50.41 85.98-42.38-72.28zm14.29 0h41.01l-20.5 34.97-20.51-34.97zM11.41 4.76h102.11L71.79 76.8l-4.98-8.49L99.5 12.56H6.88l4.53-7.8zM6.9 17.32h84.29l-3.85 6.56H20.96l46.56 79.4H57.31L6.9 17.32z" style="fill:#0076f8"/><path class="st1" d="M174.72 85.16V36.43h-17.16v-12.7h47.71v12.7H188.1v48.73h-13.38zM235.98 79.84h-.86c-2.86 4.46-7.15 6.69-12.87 6.69-5.26 0-9.18-1.69-11.75-5.06-2.57-3.37-3.86-7.81-3.86-13.3V43.12h12.87v23.59c0 2.29.54 4.16 1.63 5.62 1.09 1.46 2.77 2.19 5.06 2.19 2.92 0 5.13-1.12 6.65-3.35 1.51-2.23 2.27-5.15 2.27-8.75v-19.3h12.87v42.04h-12.01v-5.32zM257.6 85.16V23.73h12.87v61.43H257.6zM287.2 39.17c-1.15 0-2.2-.21-3.17-.64-.97-.43-1.82-1-2.53-1.72a8.153 8.153 0 0 1-1.72-2.53c-.43-.97-.64-2.03-.64-3.17 0-1.09.21-2.13.64-3.13.43-1 1-1.86 1.72-2.57.71-.71 1.56-1.29 2.53-1.72.97-.43 2.03-.64 3.17-.64 1.09 0 2.13.21 3.13.64 1 .43 1.86 1 2.57 1.72.71.72 1.29 1.57 1.72 2.57.43 1 .64 2.04.64 3.13 0 1.15-.21 2.2-.64 3.17-.43.97-1 1.82-1.72 2.53-.72.72-1.57 1.29-2.57 1.72-1 .43-2.04.64-3.13.64zm-6.43 45.99V43.12h12.87v42.04h-12.87zM328.73 81.39h-.86a18.516 18.516 0 0 1-4.68 3.69c-1.75.97-3.99 1.46-6.74 1.46-2.12 0-4.11-.34-5.96-1.03-1.86-.69-3.49-1.66-4.89-2.92a13.46 13.46 0 0 1-3.3-4.55c-.8-1.77-1.2-3.75-1.2-5.92 0-2.12.43-4.05 1.29-5.79.86-1.74 2.03-3.25 3.52-4.5 1.49-1.26 3.25-2.23 5.28-2.92 2.03-.69 4.25-1.03 6.65-1.03 2.57 0 4.7.17 6.39.51 1.69.34 3.19.74 4.5 1.2v-1.12c0-1.83-.76-3.39-2.27-4.68-1.52-1.29-3.56-1.93-6.13-1.93-3.72 0-6.92 1.52-9.61 4.55l-8.75-6.18c2.4-2.86 5.19-4.99 8.37-6.39 3.17-1.4 6.68-2.1 10.51-2.1 6.86 0 12.04 1.53 15.53 4.59 3.49 3.06 5.23 7.71 5.23 13.94v24.88h-12.87v-3.76zm0-12.79c-1.32-.51-2.62-.91-3.9-1.2-1.29-.29-2.62-.43-3.99-.43-2.29 0-4 .47-5.15 1.42-1.14.94-1.72 2.16-1.72 3.65 0 1.49.54 2.67 1.63 3.56 1.09.89 2.52 1.33 4.29 1.33 1.43 0 2.7-.24 3.82-.73 1.12-.49 2.04-1.13 2.79-1.93.74-.8 1.3-1.7 1.67-2.7.37-1.01.56-2 .56-2.97zM423.02 75.21c-6.29 7.55-14.5 11.33-24.62 11.33-4.58 0-8.84-.83-12.78-2.49-3.95-1.66-7.37-3.93-10.25-6.82-2.89-2.89-5.16-6.28-6.82-10.17-1.66-3.89-2.49-8.09-2.49-12.61s.83-8.72 2.49-12.61c1.66-3.89 3.93-7.28 6.82-10.17 2.89-2.89 6.31-5.16 10.25-6.82 3.95-1.66 8.21-2.49 12.78-2.49 5.03 0 9.4.86 13.08 2.57 3.69 1.72 7.05 4.2 10.08 7.46l-9.35 9.09c-1.6-1.83-3.52-3.36-5.75-4.59s-4.89-1.84-7.98-1.84c-2.69 0-5.19.46-7.51 1.37s-4.33 2.23-6.05 3.95c-1.72 1.72-3.06 3.76-4.03 6.13-.97 2.38-1.46 5.02-1.46 7.94 0 2.92.49 5.56 1.46 7.94.97 2.37 2.32 4.42 4.03 6.13s3.73 3.03 6.05 3.95 4.82 1.37 7.51 1.37c3.26 0 6.09-.66 8.49-1.97 2.4-1.32 4.58-3.2 6.52-5.66l9.53 9.01zM432.29 23.73h13.21L463 53.76h.86l17.5-30.03h13.21v61.43h-13.21v-27.2l.86-10.3h-.86l-13.99 24.45h-7.89L445.5 47.67h-.86l.86 10.3v27.2h-13.21V23.73zM526.41 86.53c-5.72 0-10.65-1.53-14.8-4.59-4.15-3.06-7.08-7.45-8.79-13.17l12.61-4.98c.74 2.92 1.97 5.32 3.69 7.21s4.15 2.83 7.29 2.83c1.03 0 2.02-.11 2.96-.34.94-.23 1.77-.59 2.49-1.07.71-.49 1.3-1.1 1.76-1.84.46-.74.69-1.6.69-2.57 0-.97-.19-1.87-.56-2.7-.37-.83-.99-1.6-1.84-2.32-.86-.71-2-1.43-3.43-2.14-1.43-.71-3.23-1.47-5.41-2.27l-3.78-1.37c-1.6-.57-3.25-1.36-4.93-2.36-1.69-1-3.22-2.22-4.59-3.65a17.971 17.971 0 0 1-3.35-4.93c-.86-1.86-1.29-3.93-1.29-6.22 0-2.46.49-4.78 1.46-6.95s2.35-4.05 4.12-5.62c1.77-1.57 3.92-2.82 6.43-3.73 2.52-.91 5.29-1.37 8.32-1.37 3.2 0 5.95.42 8.24 1.24 2.29.83 4.23 1.89 5.83 3.17 1.6 1.29 2.87 2.73 3.82 4.33.94 1.6 1.67 3.15 2.19 4.63l-11.58 4.89c-.63-1.83-1.63-3.3-3-4.42s-3.15-1.67-5.32-1.67c-2.29 0-4.1.47-5.45 1.42-1.34.94-2.02 2.16-2.02 3.65 0 1.54.69 2.92 2.06 4.12s3.8 2.4 7.29 3.6l3.78 1.29c5.2 1.77 9.24 4.15 12.1 7.12 2.86 2.98 4.29 6.98 4.29 12.01 0 3.2-.64 5.98-1.93 8.32-1.29 2.35-2.95 4.29-4.98 5.83-2.03 1.54-4.32 2.7-6.86 3.48-2.54.76-5.05 1.14-7.51 1.14z"/></g></svg>